<svg xmlns="http://www.w3.org/2000/svg" viewBox="0 0 400 400" role="img" aria-label="Developer coding in VS Code">
  <defs>
    <linearGradient id="bg" x1="0%" y1="0%" x2="100%" y2="100%">
      <stop offset="0%" stop-color="#1e1b4b"/>
      <stop offset="50%" stop-color="#312e81"/>
      <stop offset="100%" stop-color="#0c4a6e"/>
    </linearGradient>
    <linearGradient id="glow" x1="0%" y1="0%" x2="100%" y2="0%">
      <stop offset="0%" stop-color="#38bdf8"/>
      <stop offset="50%" stop-color="#a78bfa"/>
      <stop offset="100%" stop-color="#f472b6"/>
    </linearGradient>
    <linearGradient id="screen" x1="0%" y1="0%" x2="0%" y2="100%">
      <stop offset="0%" stop-color="#1e1e1e"/>
      <stop offset="100%" stop-color="#252526"/>
    </linearGradient>
  </defs>
  <rect width="400" height="400" rx="24" fill="url(#bg)"/>
  <circle cx="200" cy="200" r="160" fill="none" stroke="url(#glow)" stroke-width="2" opacity="0.4"/>
  <rect x="55" y="200" width="290" height="165" rx="12" fill="#1e293b" stroke="url(#glow)" stroke-width="2"/>
  <rect x="70" y="215" width="260" height="120" rx="6" fill="url(#screen)"/>
  <rect x="70" y="215" width="36" height="120" fill="#333"/>
  <rect x="78" y="228" width="20" height="4" rx="1" fill="#38bdf8"/>
  <rect x="118" y="232" width="80" height="5" rx="2" fill="#569cd6"/>
  <rect x="118" y="246" width="120" height="5" rx="2" fill="#9cdcfe"/>
  <rect x="118" y="260" width="95" height="5" rx="2" fill="#ce9178"/>
  <rect x="118" y="274" width="140" height="5" rx="2" fill="#d4d4d4"/>
  <rect x="118" y="288" width="70" height="5" rx="2" fill="#4ec9b0"/>
  <ellipse cx="200" cy="155" rx="52" ry="58" fill="#3d2914"/>
  <ellipse cx="200" cy="148" rx="48" ry="52" fill="#6b4423"/>
  <path d="M152 130 Q200 95 248 130 Q250 115 200 100 Q150 115 152 130" fill="#1a1208"/>
  <ellipse cx="182" cy="148" rx="5" ry="6" fill="#1a1208"/>
  <ellipse cx="218" cy="148" rx="5" ry="6" fill="#1a1208"/>
  <path d="M188 168 Q200 176 212 168" stroke="#2d1f14" stroke-width="3" fill="none" stroke-linecap="round"/>
  <path d="M155 195 Q200 220 245 195 L260 210 L140 210 Z" fill="url(#glow)" opacity="0.9"/>
  <ellipse cx="145" cy="318" rx="18" ry="10" fill="#6b4423"/>
  <ellipse cx="255" cy="318" rx="18" ry="10" fill="#6b4423"/>
  <rect x="300" y="55" width="72" height="72" rx="14" fill="#007acc"/>
  <path d="M318 95 L338 82 L338 108 Z" fill="#fff"/>
</svg>
