<svg xmlns="http://www.w3.org/2000/svg" viewBox="0 0 400 400" role="img" aria-label="Developer coding in VS Code">
  <defs>
    <linearGradient id="bg" x1="0%" y1="0%" x2="100%" y2="100%">
      <stop offset="0%" stop-color="#0b0f14"/>
      <stop offset="100%" stop-color="#1a2330"/>
    </linearGradient>
    <linearGradient id="screen" x1="0%" y1="0%" x2="0%" y2="100%">
      <stop offset="0%" stop-color="#1e1e1e"/>
      <stop offset="100%" stop-color="#252526"/>
    </linearGradient>
  </defs>
  <rect width="400" height="400" rx="24" fill="url(#bg)"/>
  <!-- Laptop -->
  <rect x="55" y="200" width="290" height="165" rx="12" fill="#2a3544"/>
  <rect x="70" y="215" width="260" height="120" rx="6" fill="url(#screen)"/>
  <!-- VS Code sidebar -->
  <rect x="70" y="215" width="36" height="120" fill="#333333"/>
  <rect x="78" y="228" width="20" height="4" rx="1" fill="#007acc"/>
  <rect x="78" y="240" width="16" height="3" rx="1" fill="#858585"/>
  <rect x="78" y="250" width="18" height="3" rx="1" fill="#858585"/>
  <!-- Code lines -->
  <rect x="118" y="232" width="80" height="5" rx="2" fill="#569cd6"/>
  <rect x="118" y="246" width="120" height="5" rx="2" fill="#9cdcfe"/>
  <rect x="118" y="260" width="95" height="5" rx="2" fill="#ce9178"/>
  <rect x="118" y="274" width="140" height="5" rx="2" fill="#d4d4d4"/>
  <rect x="118" y="288" width="70" height="5" rx="2" fill="#4ec9b0"/>
  <rect x="118" y="302" width="110" height="5" rx="2" fill="#c586c0"/>
  <!-- Person -->
  <ellipse cx="200" cy="155" rx="52" ry="58" fill="#3d2914"/>
  <ellipse cx="200" cy="148" rx="48" ry="52" fill="#5c3d2e"/>
  <!-- Hair -->
  <path d="M152 130 Q200 95 248 130 Q250 115 200 100 Q150 115 152 130" fill="#1a1208"/>
  <!-- Face features -->
  <ellipse cx="182" cy="148" rx="5" ry="6" fill="#1a1208"/>
  <ellipse cx="218" cy="148" rx="5" ry="6" fill="#1a1208"/>
  <path d="M188 168 Q200 176 212 168" stroke="#2d1f14" stroke-width="3" fill="none" stroke-linecap="round"/>
  <!-- Shirt -->
  <path d="M155 195 Q200 220 245 195 L260 210 L140 210 Z" fill="#38bdf8"/>
  <path d="M175 195 L200 215 L225 195" fill="#0ea5e9"/>
  <!-- Hands on keyboard -->
  <ellipse cx="145" cy="318" rx="18" ry="10" fill="#5c3d2e"/>
  <ellipse cx="255" cy="318" rx="18" ry="10" fill="#5c3d2e"/>
  <!-- VS Code badge -->
  <rect x="300" y="55" width="72" height="72" rx="14" fill="#007acc"/>
  <path d="M318 95 L338 82 L338 108 Z" fill="#fff"/>
  <path d="M338 82 L358 95 L338 108 Z" fill="#fff" opacity="0.7"/>
</svg>
